<svg xmlns="http://www.w3.org/2000/svg" id="Layer_1" data-name="Layer 1"
    viewBox="0 1099.61 2536.53 318.36">
    <defs>
        <style>
            .cls-1 {
            font-family: MyriadPro-Regular, 'Myriad Pro';
            font-size: 109.96px;
            }

            .cls-1, .cls-2, .cls-3 {
            fill: #06a8f0;
            }

            .cls-4 {
            fill: #e93294;
            }

            .cls-4, .cls-5, .cls-6, .cls-2, .cls-7 {
            fill-rule: evenodd;
            }

            .cls-4, .cls-5, .cls-6, .cls-2, .cls-7, .cls-3, .cls-8, .cls-9 {
            stroke-width: 0px;
            }

            .cls-5 {
            fill: #fc95b3;
            }

            .cls-6, .cls-9 {
            fill: #f20d80;
            }

            .cls-7 {
            fill: #bce8f7;
            }

            .cls-10 {
            letter-spacing: .18em;
            }

            .cls-11 {
            letter-spacing: .2em;
            }

            .cls-12 {
            letter-spacing: .2em;
            }

            .cls-8 {
            fill: #ffd2f5;
            }

            .cls-13 {
            letter-spacing: .19em;
            }

            .cls-14 {
            letter-spacing: .2em;
            }

            .cls-15 {
            letter-spacing: .19em;
            }
        </style>
    </defs>
    <g>
        <path class="cls-9"
            d="M215.76,1372.75l-26.71-70.35h-108.54l-26.52,70.35H0l108.16-269.75h53.23l108.35,269.75h-53.99ZM134.87,1158.87l-37.81,100.07h75.62l-37.81-100.07Z" />
        <path class="cls-9"
            d="M340.84,1372.75l-105.34-269.75h54.93l74.87,213.88,75.06-213.88h54.93l-105.34,269.75h-49.1Z" />
        <path class="cls-9"
            d="M525.55,1372.75v-269.75h196.39v43.45h-147.29v69.79h122.46v43.27h-122.46v69.79h154.44v43.45h-203.54Z" />
        <path class="cls-9"
            d="M1080.26,1372.75l-26.71-70.35h-108.54l-26.52,70.35h-53.99l108.16-269.75h53.23l108.35,269.75h-53.99ZM999.37,1158.87l-37.81,100.07h75.62l-37.81-100.07Z" />
        <path class="cls-9"
            d="M1328.17,1372.75l-57.56-73.93c-4.14.19-8.46.38-12.79.38h-38.19v73.55h-49.1v-269.75h87.28c27.09,0,49.47,4.33,67.15,12.6,17.87,8.47,31.04,19.94,39.69,34.8,8.84,14.67,13.17,31.6,13.17,50.6s-4.52,36.68-13.54,51.73c-8.84,14.86-22.57,26.34-41.01,34.61l66.59,85.4h-61.7ZM1310.87,1241.07c11.1-9.78,16.74-23.14,16.74-40.07s-5.64-30.1-16.74-39.88c-11.29-9.78-28.97-14.67-53.05-14.67h-38.19v109.29h38.19c24.08,0,41.76-4.89,53.05-14.67Z" />
        <path class="cls-9" d="M1427.85,1372.75v-269.75h49.1v269.75h-49.1Z" />
        <path class="cls-9"
            d="M1580.59,1371.99c-13.73-2.63-26.52-6.21-38-10.53-11.48-4.33-21.07-9.03-28.97-13.73l19-42.51,6.4,4.14c4.14,2.82,9.97,6.02,17.49,9.59,7.53,3.57,16.37,6.96,26.34,9.59,9.97,2.82,20.69,4.33,32.36,4.33,14.67,0,26.71-1.5,36.3-4.7,9.59-3.2,16.74-7.34,21.44-12.79,4.7-5.27,7.15-11.29,7.15-17.68,0-7.71-3.01-14.11-9.03-18.81-5.83-4.89-13.73-8.84-23.33-12.23-9.59-3.2-20.13-6.21-31.41-9.03-11.29-2.82-22.57-6.21-33.67-9.78-11.1-3.57-21.26-8.09-30.47-13.54-9.22-5.64-16.74-12.6-22.38-21.07s-8.47-19.19-8.47-31.98c0-14.3,3.76-27.65,11.48-40.07,7.53-12.41,18.81-22.57,33.67-30.1,14.86-7.71,33.3-11.47,55.12-11.47,14.11,0,27.65,1.32,40.25,3.76,12.6,2.63,24.08,6.02,34.24,9.97,10.16,3.95,18.81,8.09,25.96,12.23l-17.49,39.69-5.08-3.38c-3.39-2.26-8.47-4.89-15.05-7.71-6.77-3.01-15.05-5.46-24.83-7.71-9.97-2.26-21.44-3.39-34.61-3.39-15.61,0-28.59,2.63-38.94,8.28-10.35,5.64-15.61,13.36-15.61,23.14,0,7.52,3.01,13.73,9.03,18.62,6.21,4.89,14.11,9.22,23.89,12.79,9.78,3.57,20.5,7.15,31.79,10.35,11.48,3.39,22.76,6.96,34.05,10.91,11.1,4.14,21.26,8.84,30.66,14.48,9.22,5.64,16.74,12.6,22.38,20.88,5.64,8.28,8.46,18.43,8.46,30.47,0,15.61-3.95,29.91-12.04,42.32-8.09,12.6-19.94,22.57-35.93,29.91-15.99,7.34-35.93,11.1-59.82,11.1-14.48,0-28.59-1.5-42.33-4.33Z" />
        <path class="cls-9"
            d="M1835.65,1372.75v-226.3h-80.51v-43.45h210.12v43.45h-80.51v226.3h-49.1Z" />
        <path class="cls-9"
            d="M2052.91,1357.51c-21.63-12.42-38.94-28.97-51.92-50.04-12.98-20.88-19.38-44.02-19.38-69.6s6.4-48.72,19.38-69.6c12.98-20.88,30.29-37.62,51.92-50.04,21.82-12.42,45.9-18.62,72.42-18.62s50.41,6.21,72.23,18.62c21.63,12.42,38.94,29.16,51.92,50.04,12.98,20.88,19.38,44.21,19.38,69.6s-6.39,48.72-19.38,69.6c-12.98,21.07-30.29,37.62-51.92,50.04-21.82,12.6-45.9,18.81-72.23,18.81s-50.6-6.21-72.42-18.81ZM2169.91,1312.74c13.54-6.77,24.64-16.55,33.11-29.16,8.47-12.79,12.6-27.84,12.6-45.71s-4.14-32.92-12.6-45.71c-8.46-12.6-19.56-22.38-33.11-29.16-13.73-6.77-28.59-10.16-44.58-10.16s-31.04,3.38-44.77,10.16c-13.73,6.77-24.64,16.55-33.11,29.16-8.46,12.79-12.6,28.03-12.6,45.71s4.14,32.92,12.6,45.71c8.47,12.6,19.38,22.38,33.11,29.16,13.73,6.77,28.59,10.16,44.77,10.16s30.85-3.39,44.58-10.16Z" />
        <path class="cls-9"
            d="M2382.08,1372.75l-105.34-269.75h54.93l74.87,213.88,75.06-213.88h54.93l-105.34,269.75h-49.1Z" />
    </g>
    <path class="cls-2"
        d="M2125.27,1219.08s7.31,66.81-100.06,121.74c0,0,73.74,62.23,100.06,77.15v-198.89Z" />
    <path class="cls-7"
        d="M2125.27,1219.08s-7.31,66.81,100.06,121.74c0,0-73.74,62.23-100.06,77.15v-198.89Z" />
</svg>