<?xml version="1.0" encoding="UTF-8"?>
<svg id="Layer_1" data-name="Layer 1" xmlns="http://www.w3.org/2000/svg"
  viewBox="0 0 2536.52 1549.2">
  <defs>
    <style>
      .cls-1 {
      font-family: MyriadPro-Regular, 'Myriad Pro';
      font-size: 109.96px;
      }

      .cls-1, .cls-2, .cls-3 {
      fill: #06a8f0;
      }

      .cls-4 {
      fill: #e93294;
      }

      .cls-4, .cls-5, .cls-6, .cls-2, .cls-7 {
      fill-rule: evenodd;
      }

      .cls-4, .cls-5, .cls-6, .cls-2, .cls-7, .cls-3, .cls-8, .cls-9 {
      stroke-width: 0px;
      }

      .cls-5 {
      fill: #fc95b3;
      }

      .cls-6, .cls-9 {
      fill: #fd3694;
      }

      .cls-7 {
      fill: #bce8f7;
      }

      .cls-10 {
      letter-spacing: .18em;
      }

      .cls-11 {
      letter-spacing: .2em;
      }

      .cls-12 {
      letter-spacing: .2em;
      }

      .cls-8 {
      fill: #ffd2f5;
      }

      .cls-13 {
      letter-spacing: .19em;
      }

      .cls-14 {
      letter-spacing: .2em;
      }

      .cls-15 {
      letter-spacing: .19em;
      }
    </style>
  </defs>
  <path class="cls-5"
    d="M1682.4,753.19c14.61,4.75,28.96,10.45,42.99,17.09,27.8,13.17,53.53,29.71,76.76,49.16,82.23-63.47,138.29-159.08,149.49-267.89,2.45-46.44-1.3-94.6-11.55-142.52-14.1-51.83-38.64-99.32-71.21-140.11-.03-.05-.08-.09-.11-.14l10.68-19.58c18.39-33.33,33.14-70.03,41.73-112.43,5.56-27.41,8.53-57.21,8.27-90.04-.12-14.88-.93-30.37-2.46-46.55,0-.06-.02-.12-.02-.19-1.67,2.03-3.37,4.01-5.09,5.94-.02,0-.02.02-.02.02-38.48,43.23-89.33,64.04-148.76,76.62-40.56,8.61-78.45,12.86-115.43,16.9-23.56,2.55-46.76,5.03-70.05,8.48-69.95-21.62-186.33-51.02-302.75-51.02l-16.63.15-16.66-.15c-116.34,0-232.71,29.38-302.69,51.02h-.02s-.06-.02-.11-.02c-.06,0-.14-.02-.23-.02-3.72-.33-30.73-2.69-68.36-8.3-.05,0-.09-.02-.14-.02-37.38-4.09-75.66-8.34-116.64-17.04-62.03-13.14-114.78-35.23-153.76-82.46-.08.5-.31,2.51-.62,5.85-.02.22-.05.45-.06.68-.02.25-.05.51-.06.77-.03.28-.05.57-.08.87-.08.94-.15,1.95-.25,3.03-.09,1.3-.19,2.69-.28,4.21-.08,1.15-.15,2.37-.23,3.64-.03.45-.05.9-.08,1.36-.05.87-.09,1.76-.12,2.68-1.28,27.58-1.02,76.61,11.16,129.95.03.11.05.22.08.33,8.84,35.45,22.03,66.84,37.96,95.71l10.14,18.65s.02.05.03.06l.46.87c-32.62,40.82-57.17,88.36-71.28,140.25-10.25,47.93-13.99,96.08-11.53,142.52,11.19,109.02,67.48,204.81,149.98,268.28,12.91,9.94,26.49,19.07,40.6,27.34,52.79,30.93,113.54,49.77,178.5,52.68l15.4.39c.63,0,1.27,0,1.89.02,55.43.06,108.2-11.47,155.99-32.35,15.19-6.61,30.42-14.77,45.34-24.04.51-.33,1.01-.65,1.52-.96.06-.05.14-.08.2-.12l2.57,4.5,91.08,159.87.03.05.26.46,91.39-160.46,2.2-3.84.34-.59c.56.36,1.11.71,1.69,1.05,14.97,9.3,30.19,17.46,45.4,24.07,87.12,38.08,128.25,15.68,202.94,40,14.19,4.63,27.52,10.77,40.23,16.8,6.01,2.85,11.81,5.99,17.4,9.43,26.39,16.15,48.25,38.62,64.33,65.28,19.89,32.97,137.86-12,106.41-64.13-12.2-20.22-26.5-38.98-42.69-55.97-11.19-11.72-23.27-22.58-36.21-32.51-17.31-13.25-36.11-24.8-56.27-34.33-40.7-19.29-86.5-30.31-136-30.87-9.46.62-18.95.82-28.44.62-40.31-.88-80.49-9.09-117.41-24.64-71.92-30.31-131.42-88.54-155.31-174.97l-.23.84v.02s-.02.05-.03.08c0,.05-.02.08-.03.11,0,.03,0,.05-.02.06-24.58,87.69-83.16,145-153.74,174.35-80.8,33.59-177.37,30.59-256.71-5.4-97.13-44.06-168.5-137.51-153.68-273.68,6.21-57.15,27.71-104.46,58.99-141.62,124.61-148.11,404.5-135.35,490.81,56.79,6.8,14.21,11.69,28.06,14.71,40.8.03-.06.05-.15.08-.22v-.02s.02-.06.03-.09c.57-2.12,1.18-4.23,1.8-6.32,1.56-5.63,3.48-11.45,5.79-17.4.29-.82.62-1.66.94-2.49,78.96-208.12,366.11-213.6,494.9-70.9,49.52,54.86,75.63,131.64,57.51,227.23-17.41,91.87-74.81,154.78-146.96,188.46Z" />
  <circle class="cls-3" cx="1551.29" cy="505.32" r="207.44" />
  <circle class="cls-8" cx="1478.97" cy="436.13" r="97.82" />
  <circle class="cls-3" cx="997.58" cy="505.32" r="207.44" />
  <circle class="cls-8" cx="925.27" cy="436.13" r="97.82" />
  <path class="cls-6"
    d="M1929.45,46.73c-.05,24.19-1.83,55.82-8.27,90.04-8.1,43.08-23.56,90.28-52.2,132.01,0,0-.03.05-.11.14-2.46,3.27-49.88,65.56-97.03,68.57-128.79-142.71-415.94-137.23-494.9,70.9-.33.84-.65,1.67-.94,2.49-2.31,5.94-4.23,11.76-5.79,17.4-.67,2.34-1.25,4.63-1.78,6.89,0,0-.02-.2-.02-.57-.02-.15-.02-.36-.02-.57v-.15c-.05-1.93-.11-5.98,0-11.72.74-39.92,9.26-161.87,83.26-226.05,89.32-77.48,236.16-88.14,236.16-88.14,0,0,28.71-2.34,69.84-8.48,36.98-4.04,74.87-8.3,115.43-16.9,59.43-12.58,110.28-33.39,148.76-76.62,0,0,0-.02.02-.02,1.8-1.89,3.51-3.81,5.11-5.76.05-.06.11-.12.15-.19,0,0,2.35,18.2,2.31,46.73Z" />
  <path class="cls-2" d="M1267.99,582.6v425.07l-93.95-164.89s100.13-92.89,93.95-260.18Z" />
  <path class="cls-7"
    d="M1267.97,583.26v425.07s93.95-164.89,93.95-164.89c0,0-100.13-92.89-93.95-260.18Z" />
  <path class="cls-4"
    d="M1268.41,433.88v.15c0,.26-.02.5-.02.67v.02c-.02.31-.02.46-.02.46-.02-.08-.03-.15-.06-.23v-.02c-3.02-12.74-7.91-26.59-14.71-40.8-86.31-192.15-366.2-204.9-490.81-56.79-47.71-4.88-94.97-68.54-94.97-68.54-.2-.29-.39-.57-.59-.87-.02-.02-.03-.05-.03-.06-24.61-36.14-39.38-76.33-48.1-114.36-.03-.11-.05-.22-.08-.33-12.18-53.34-12.45-102.37-11.16-129.95.03-.91.08-1.81.12-2.68.03-.46.05-.91.08-1.36.08-1.27.15-2.49.23-3.64.09-1.52.19-2.91.28-4.21.09-1.08.17-2.09.25-3.03.03-.29.05-.59.08-.87.02-.26.05-.53.06-.77.02-.23.05-.46.06-.68.31-3.34.54-5.36.62-5.85,38.98,47.23,91.73,69.32,153.76,82.46,40.97,8.7,79.26,12.96,116.64,17.04.05,0,.09.02.14.02,37.63,5.6,64.64,7.97,68.36,8.3.09,0,.17.02.23.02.05,0,.08,0,.11.02h.09s146.84,10.67,236.16,88.14c74.01,64.18,82.52,186.13,83.26,226.05.11,5.74.05,9.78,0,11.72Z" />
  <g>
    <path class="cls-9"
      d="M215.76,1372.75l-26.71-70.35h-108.54l-26.52,70.35H0l108.16-269.75h53.23l108.35,269.75h-53.99ZM134.87,1158.87l-37.81,100.07h75.62l-37.81-100.07Z" />
    <path class="cls-9"
      d="M340.84,1372.75l-105.34-269.75h54.93l74.87,213.88,75.06-213.88h54.93l-105.34,269.75h-49.1Z" />
    <path class="cls-9"
      d="M525.55,1372.75v-269.75h196.39v43.45h-147.29v69.79h122.46v43.27h-122.46v69.79h154.44v43.45h-203.54Z" />
    <path class="cls-9"
      d="M1080.26,1372.75l-26.71-70.35h-108.54l-26.52,70.35h-53.99l108.16-269.75h53.23l108.35,269.75h-53.99ZM999.37,1158.87l-37.81,100.07h75.62l-37.81-100.07Z" />
    <path class="cls-9"
      d="M1328.17,1372.75l-57.56-73.93c-4.14.19-8.46.38-12.79.38h-38.19v73.55h-49.1v-269.75h87.28c27.09,0,49.47,4.33,67.15,12.6,17.87,8.47,31.04,19.94,39.69,34.8,8.84,14.67,13.17,31.6,13.17,50.6s-4.52,36.68-13.54,51.73c-8.84,14.86-22.57,26.34-41.01,34.61l66.59,85.4h-61.7ZM1310.87,1241.07c11.1-9.78,16.74-23.14,16.74-40.07s-5.64-30.1-16.74-39.88c-11.29-9.78-28.97-14.67-53.05-14.67h-38.19v109.29h38.19c24.08,0,41.76-4.89,53.05-14.67Z" />
    <path class="cls-9" d="M1427.85,1372.75v-269.75h49.1v269.75h-49.1Z" />
    <path class="cls-9"
      d="M1580.59,1371.99c-13.73-2.63-26.52-6.21-38-10.53-11.48-4.33-21.07-9.03-28.97-13.73l19-42.51,6.4,4.14c4.14,2.82,9.97,6.02,17.49,9.59,7.53,3.57,16.37,6.96,26.34,9.59,9.97,2.82,20.69,4.33,32.36,4.33,14.67,0,26.71-1.5,36.3-4.7,9.59-3.2,16.74-7.34,21.44-12.79,4.7-5.27,7.15-11.29,7.15-17.68,0-7.71-3.01-14.11-9.03-18.81-5.83-4.89-13.73-8.84-23.33-12.23-9.59-3.2-20.13-6.21-31.41-9.03-11.29-2.82-22.57-6.21-33.67-9.78-11.1-3.57-21.26-8.09-30.47-13.54-9.22-5.64-16.74-12.6-22.38-21.07s-8.47-19.19-8.47-31.98c0-14.3,3.76-27.65,11.48-40.07,7.53-12.41,18.81-22.57,33.67-30.1,14.86-7.71,33.3-11.47,55.12-11.47,14.11,0,27.65,1.32,40.25,3.76,12.6,2.63,24.08,6.02,34.24,9.97,10.16,3.95,18.81,8.09,25.96,12.23l-17.49,39.69-5.08-3.38c-3.39-2.26-8.47-4.89-15.05-7.71-6.77-3.01-15.05-5.46-24.83-7.71-9.97-2.26-21.44-3.39-34.61-3.39-15.61,0-28.59,2.63-38.94,8.28-10.35,5.64-15.61,13.36-15.61,23.14,0,7.52,3.01,13.73,9.03,18.62,6.21,4.89,14.11,9.22,23.89,12.79,9.78,3.57,20.5,7.15,31.79,10.35,11.48,3.39,22.76,6.96,34.05,10.91,11.1,4.14,21.26,8.84,30.66,14.48,9.22,5.64,16.74,12.6,22.38,20.88,5.64,8.28,8.46,18.43,8.46,30.47,0,15.61-3.95,29.91-12.04,42.32-8.09,12.6-19.94,22.57-35.93,29.91-15.99,7.34-35.93,11.1-59.82,11.1-14.48,0-28.59-1.5-42.33-4.33Z" />
    <path class="cls-9" d="M1835.65,1372.75v-226.3h-80.51v-43.45h210.12v43.45h-80.51v226.3h-49.1Z" />
    <path class="cls-9"
      d="M2052.91,1357.51c-21.63-12.42-38.94-28.97-51.92-50.04-12.98-20.88-19.38-44.02-19.38-69.6s6.4-48.72,19.38-69.6c12.98-20.88,30.29-37.62,51.92-50.04,21.82-12.42,45.9-18.62,72.42-18.62s50.41,6.21,72.23,18.62c21.63,12.42,38.94,29.16,51.92,50.04,12.98,20.88,19.38,44.21,19.38,69.6s-6.39,48.72-19.38,69.6c-12.98,21.07-30.29,37.62-51.92,50.04-21.82,12.6-45.9,18.81-72.23,18.81s-50.6-6.21-72.42-18.81ZM2169.91,1312.74c13.54-6.77,24.64-16.55,33.11-29.16,8.47-12.79,12.6-27.84,12.6-45.71s-4.14-32.92-12.6-45.71c-8.46-12.6-19.56-22.38-33.11-29.16-13.73-6.77-28.59-10.16-44.58-10.16s-31.04,3.38-44.77,10.16c-13.73,6.77-24.64,16.55-33.11,29.16-8.46,12.79-12.6,28.03-12.6,45.71s4.14,32.92,12.6,45.71c8.47,12.6,19.38,22.38,33.11,29.16,13.73,6.77,28.59,10.16,44.77,10.16s30.85-3.39,44.58-10.16Z" />
    <path class="cls-9"
      d="M2382.08,1372.75l-105.34-269.75h54.93l74.87,213.88,75.06-213.88h54.93l-105.34,269.75h-49.1Z" />
  </g>
  <path class="cls-2"
    d="M2125.27,1219.08s7.31,66.81-100.06,121.74c0,0,73.74,62.23,100.06,77.15v-198.89Z" />
  <path class="cls-7"
    d="M2125.27,1219.08s-7.31,66.81,100.06,121.74c0,0-73.74,62.23-100.06,77.15v-198.89Z" />
</svg>