<?xml version="1.0" encoding="UTF-8"?>
<svg id="Layer_1" data-name="Layer 1" xmlns="http://www.w3.org/2000/svg" viewBox="0 0 2796.65 426.57">
  <defs>
    <style>
        /*Eyebrows*/
      .cls-1 {
        fill: #f20d80;
      }

      .cls-1, .cls-2, .cls-3, .cls-4, .cls-5 {
        fill-rule: evenodd;
      }

      .cls-1, .cls-2, .cls-3, .cls-4, .cls-5, .cls-6, .cls-7, .cls-8 {
        stroke-width: 0px;
      }

      .cls-2 {
        fill: #fc95b3;
      }
      /* /Eyebrows and Characters/ */
      .cls-3, .cls-8 {
        fill: #f20d80;
      }
      /* Beak */
      .cls-4, .cls-6 {
        fill: #06a8f0;
      }

      /* Light Shade Beak */
      .cls-5 {
        fill: #bce8f7;
      }

      /* Pupil */
      .cls-7 {
        fill: #10030a;
      }
    </style>
  </defs>
  <path class="cls-8" d="M825.89,322.75l-22.68-59.74h-92.17l-22.52,59.74h-45.85l91.85-229.07h45.21l92.01,229.07h-45.85ZM757.2,141.12l-32.11,84.98h64.22l-32.11-84.98Z"/>
  <path class="cls-8" d="M932.1,322.75l-89.45-229.07h46.64l63.58,181.62,63.74-181.62h46.64l-89.45,229.07h-41.69Z"/>
  <path class="cls-8" d="M1088.95,322.75V93.68h166.77v36.9h-125.08s0,59.26,0,59.26h103.99v36.74h-103.99v59.26h131.15v36.9h-172.84Z"/>
  <path class="cls-8" d="M1560.01,322.75l-22.68-59.74h-92.17l-22.52,59.74h-45.85l91.85-229.07h45.21l92.01,229.07h-45.85ZM1491.32,141.12l-32.11,84.98h64.22l-32.11-84.98Z"/>
  <path class="cls-8" d="M1770.53,322.75l-48.88-62.78c-3.51.16-7.19.32-10.86.32h-32.43v62.46h-41.69V93.68h74.12c23,0,42.01,3.67,57.03,10.7,15.17,7.19,26.36,16.93,33.7,29.55,7.51,12.46,11.18,26.84,11.18,42.97s-3.83,31.15-11.5,43.93c-7.51,12.62-19.17,22.36-34.82,29.39l56.55,72.52h-52.4ZM1755.84,210.93c9.42-8.31,14.22-19.65,14.22-34.02s-4.79-25.56-14.22-33.87c-9.58-8.31-24.6-12.46-45.05-12.46h-32.43v92.81h32.43c20.45,0,35.46-4.15,45.05-12.46Z"/>
  <path class="cls-8" d="M1855.18,322.75V93.68h41.69v229.07h-41.69Z"/>
  <path class="cls-8" d="M1984.89,322.11c-11.66-2.24-22.52-5.27-32.27-8.94-9.74-3.67-17.89-7.67-24.6-11.66l16.13-36.1,5.43,3.51c3.51,2.4,8.47,5.11,14.86,8.15,6.39,3.03,13.9,5.91,22.36,8.15,8.47,2.4,17.57,3.67,27.48,3.67,12.46,0,22.68-1.28,30.83-3.99,8.15-2.72,14.22-6.23,18.21-10.86,3.99-4.47,6.07-9.59,6.07-15.02,0-6.55-2.56-11.98-7.67-15.97-4.95-4.15-11.66-7.51-19.81-10.38-8.15-2.72-17.09-5.27-26.68-7.67-9.58-2.4-19.17-5.27-28.59-8.31-9.42-3.03-18.05-6.87-25.88-11.5-7.83-4.79-14.22-10.7-19.01-17.89-4.79-7.19-7.19-16.29-7.19-27.16,0-12.14,3.2-23.48,9.74-34.03,6.39-10.54,15.97-19.17,28.59-25.56,12.62-6.55,28.27-9.74,46.81-9.74,11.98,0,23.48,1.12,34.18,3.19,10.7,2.24,20.45,5.11,29.07,8.47,8.63,3.35,15.97,6.87,22.04,10.38l-14.86,33.7-4.31-2.87c-2.88-1.92-7.19-4.15-12.78-6.55-5.75-2.56-12.78-4.63-21.09-6.55-8.47-1.92-18.21-2.88-29.39-2.88-13.26,0-24.28,2.24-33.07,7.03-8.79,4.79-13.26,11.34-13.26,19.65,0,6.39,2.56,11.66,7.67,15.81,5.27,4.15,11.98,7.83,20.29,10.86,8.31,3.03,17.41,6.07,27,8.79,9.74,2.88,19.33,5.91,28.91,9.26,9.42,3.51,18.05,7.51,26.04,12.3,7.83,4.79,14.22,10.7,19.01,17.73,4.79,7.03,7.19,15.65,7.19,25.88,0,13.26-3.35,25.4-10.22,35.94-6.87,10.7-16.93,19.17-30.51,25.4-13.58,6.23-30.51,9.42-50.8,9.42-12.3,0-24.28-1.28-35.94-3.67Z"/>
  <path class="cls-8" d="M2201.48,322.75v-192.17h-68.37v-36.9h178.43v36.9h-68.37v192.17h-41.69Z"/>
  <path class="cls-8" d="M2385.97,309.81c-18.37-10.54-33.07-24.6-44.09-42.49-11.02-17.73-16.45-37.38-16.45-59.1s5.43-41.37,16.45-59.1c11.02-17.73,25.72-31.95,44.09-42.49,18.53-10.54,38.98-15.81,61.5-15.81s42.81,5.27,61.34,15.81c18.37,10.54,33.07,24.76,44.09,42.49,11.02,17.73,16.45,37.54,16.45,59.1s-5.43,41.37-16.45,59.1c-11.02,17.89-25.72,31.95-44.09,42.49-18.53,10.7-38.98,15.97-61.34,15.97s-42.97-5.27-61.5-15.97ZM2485.33,271.79c11.5-5.75,20.93-14.06,28.11-24.76,7.19-10.86,10.7-23.64,10.7-38.82s-3.51-27.95-10.7-38.82c-7.19-10.7-16.61-19.01-28.11-24.76-11.66-5.75-24.28-8.63-37.86-8.63s-26.36,2.87-38.02,8.63c-11.66,5.75-20.93,14.06-28.12,24.76-7.19,10.86-10.7,23.8-10.7,38.82s3.51,27.96,10.7,38.82c7.19,10.7,16.45,19.01,28.12,24.76,11.66,5.75,24.28,8.63,38.02,8.63s26.2-2.88,37.86-8.63Z"/>
  <path class="cls-8" d="M2665.5,322.75l-89.45-229.07h46.64l63.58,181.62,63.74-181.62h46.64l-89.45,229.07h-41.69Z"/>
  <path class="cls-4" d="M2447.42,192.25s6.21,56.73-84.97,103.38c0,0,62.62,52.84,84.97,65.52v-168.89Z"/>
  <path class="cls-5" d="M2447.42,192.25s-6.21,56.73,84.97,103.38c0,0-62.62,52.84-84.97,65.52v-168.89Z"/>
  <g>
    <path class="cls-2" d="M463.54,317.9c6.17,2.01,12.22,4.41,18.14,7.21,11.73,5.56,22.59,12.54,32.4,20.75,34.71-26.79,58.37-67.15,63.09-113.07,1.03-19.6-.55-39.93-4.87-60.15-5.95-21.87-16.31-41.92-30.05-59.13-.01-.02-.03-.04-.05-.06l4.51-8.26c7.76-14.07,13.99-29.56,17.61-47.45,2.35-11.57,3.6-24.15,3.49-38.01-.05-6.28-.39-12.82-1.04-19.65,0-.03,0-.05,0-.08-.71.86-1.42,1.69-2.15,2.51,0,0,0,0,0,0-16.24,18.25-37.71,27.03-62.79,32.34-17.12,3.63-33.11,5.43-48.72,7.13-9.94,1.08-19.74,2.12-29.56,3.58-29.53-9.13-78.64-21.53-127.78-21.53l-7.02.07-7.03-.07c-49.11,0-98.22,12.4-127.76,21.53h0s-.03,0-.05,0c-.03,0-.06,0-.1,0-1.57-.14-12.97-1.14-28.85-3.5-.02,0-.04,0-.06,0-15.78-1.72-31.94-3.52-49.23-7.19C49.48,29.31,27.21,19.99,10.76.05c-.03.21-.13,1.06-.26,2.47,0,.09-.02.19-.03.29,0,.1-.02.22-.03.33-.01.12-.02.24-.03.37-.03.4-.07.82-.1,1.28-.04.55-.08,1.14-.12,1.78-.03.48-.07,1-.1,1.54-.01.19-.02.38-.03.57-.02.37-.04.74-.05,1.13-.54,11.64-.43,32.33,4.71,54.85.01.05.02.09.03.14,3.73,14.96,9.3,28.21,16.02,40.4l4.28,7.87s0,.02.01.03l.2.37c-13.77,17.23-24.13,37.29-30.09,59.19C.85,192.87-.73,213.2.31,232.8c4.72,46.02,28.48,86.45,63.3,113.23,5.45,4.19,11.18,8.05,17.14,11.54,22.28,13.05,47.92,21.01,75.34,22.23l6.5.16c.27,0,.54,0,.8,0,23.4.03,45.67-4.84,65.84-13.66,6.41-2.79,12.84-6.23,19.14-10.15.22-.14.42-.27.64-.41.03-.02.06-.03.08-.05l1.08,1.9,38.44,67.48v.02s.12.2.12.2l38.57-67.73.93-1.62.14-.25c.24.15.47.3.71.44,6.32,3.93,12.74,7.37,19.16,10.16,36.77,16.07,54.13,6.62,85.65,16.88,5.99,1.95,11.62,4.55,16.98,7.09,2.54,1.2,4.99,2.53,7.34,3.98,11.14,6.81,20.36,16.3,27.15,27.55,8.4,13.92,58.19-5.06,44.91-27.07-5.15-8.53-11.19-16.45-18.02-23.63-4.72-4.95-9.82-9.53-15.28-13.72-7.3-5.59-15.24-10.47-23.75-14.49-17.18-8.14-36.51-12.79-57.4-13.03-3.99.26-8,.35-12,.26-17.01-.37-33.97-3.84-49.56-10.4-30.35-12.79-55.47-37.37-65.55-73.85l-.1.35h0s0,.03-.01.04c0,.02,0,.03-.01.05,0,.01,0,.02,0,.03-10.38,37.01-35.1,61.2-64.89,73.59-34.11,14.18-74.86,12.91-108.35-2.28-41-18.59-71.12-58.04-64.86-115.51,2.62-24.12,11.69-44.09,24.9-59.78,52.59-62.51,170.73-57.13,207.16,23.97,2.87,6,4.93,11.85,6.21,17.22.01-.03.02-.07.03-.09h0s0-.03.01-.05c.24-.9.5-1.78.76-2.67.66-2.38,1.47-4.83,2.44-7.34.12-.35.26-.7.4-1.05,33.33-87.84,154.52-90.16,208.88-29.92,20.9,23.15,31.92,55.56,24.27,95.91-7.35,38.78-31.58,65.33-62.03,79.55Z"/>
    <circle class="cls-6" cx="408.2" cy="213.28" r="87.56"/>
    <circle class="cls-7" cx="377.67" cy="184.08" r="41.29"/>
    <circle class="cls-6" cx="174.49" cy="213.28" r="87.56"/>
    <circle class="cls-7" cx="143.97" cy="184.08" r="41.29"/>
    <path class="cls-3" d="M567.81,19.72c-.02,10.21-.77,23.56-3.49,38.01-3.42,18.18-9.94,38.1-22.03,55.72,0,0-.01.02-.05.06-1.04,1.38-21.05,27.67-40.95,28.94-54.36-60.23-175.56-57.92-208.88,29.92-.14.35-.27.71-.4,1.05-.97,2.51-1.78,4.97-2.44,7.34-.28.99-.53,1.95-.75,2.91,0,0,0-.08,0-.24,0-.07,0-.15,0-.24v-.07c-.02-.82-.05-2.52,0-4.95.31-16.85,3.91-68.32,35.14-95.41,37.7-32.7,99.68-37.2,99.68-37.2,0,0,12.12-.99,29.48-3.58,15.61-1.71,31.6-3.5,48.72-7.13,25.08-5.31,46.54-14.09,62.79-32.34,0,0,0,0,0,0,.76-.8,1.48-1.61,2.16-2.43.02-.03.05-.05.07-.08,0,0,.99,7.68.97,19.72Z"/>
    <path class="cls-4" d="M288.62,245.9v179.41l-39.65-69.6s42.26-39.21,39.65-109.81Z"/>
    <path class="cls-5" d="M288.61,246.18v179.41s39.65-69.6,39.65-69.6c0,0-42.26-39.21-39.65-109.81Z"/>
    <path class="cls-1" d="M288.8,183.13v.07c0,.11,0,.21,0,.28h0c0,.14,0,.2,0,.2,0-.03-.01-.07-.03-.1h0c-1.27-5.38-3.34-11.23-6.21-17.23-36.43-81.1-154.56-86.48-207.16-23.97-20.14-2.06-40.08-28.93-40.08-28.93-.08-.12-.16-.24-.25-.37,0,0-.01-.02-.01-.03-10.39-15.26-16.62-32.22-20.3-48.27-.01-.05-.02-.09-.03-.14-5.14-22.51-5.25-43.21-4.71-54.85.01-.39.03-.76.05-1.13.01-.2.02-.39.03-.57.03-.54.07-1.05.1-1.54.04-.64.08-1.23.12-1.78.04-.46.07-.88.1-1.28.01-.12.02-.25.03-.37,0-.11.02-.22.03-.33,0-.1.02-.2.03-.29.13-1.41.23-2.26.26-2.47,16.45,19.93,38.72,29.26,64.9,34.8,17.29,3.67,33.45,5.47,49.23,7.19.02,0,.04,0,.06,0,15.88,2.37,27.28,3.36,28.85,3.5.04,0,.07,0,.1,0,.02,0,.03,0,.05,0h.04s61.98,4.5,99.68,37.2c31.24,27.09,34.83,78.56,35.14,95.41.05,2.42.02,4.13,0,4.95Z"/>
  </g>
</svg>