<svg xmlns="http://www.w3.org/2000/svg" id="Layer_1" data-name="Layer 1"
    viewBox="584.14 -0.01 1368.22 1010.64">
    <defs>
        <style> .cls-1 { font-family: MyriadPro-Regular, 'Myriad Pro'; font-size: 109.96px; }
            .cls-1,
            .cls-2, .cls-3 { fill: #06a8f0; } .cls-4 { fill: #e93294; } .cls-4, .cls-5, .cls-6,
            .cls-2,
            .cls-7 { fill-rule: evenodd; } .cls-4, .cls-5, .cls-6, .cls-2, .cls-7, .cls-3, .cls-8,
            .cls-9
            { stroke-width: 0px; } .cls-5 { fill: #fc95b3; } .cls-6, .cls-9 { fill: #f20d80; }
            .cls-7 {
            fill: #bce8f7; } .cls-10 { letter-spacing: .18em; } .cls-11 { letter-spacing: .2em; }
            .cls-12
            { letter-spacing: .2em; } .cls-8 { fill: #ffd2f5; } .cls-13 { letter-spacing: .19em; }
            .cls-14
            { letter-spacing: .2em; } .cls-15 { letter-spacing: .19em; } </style>
    </defs>
    <path class="cls-5"
        d="M1682.4,753.19c14.61,4.75,28.96,10.45,42.99,17.09,27.8,13.17,53.53,29.71,76.76,49.16,82.23-63.47,138.29-159.08,149.49-267.89,2.45-46.44-1.3-94.6-11.55-142.52-14.1-51.83-38.64-99.32-71.21-140.11-.03-.05-.08-.09-.11-.14l10.68-19.58c18.39-33.33,33.14-70.03,41.73-112.43,5.56-27.41,8.53-57.21,8.27-90.04-.12-14.88-.93-30.37-2.46-46.55,0-.06-.02-.12-.02-.19-1.67,2.03-3.37,4.01-5.09,5.94-.02,0-.02.02-.02.02-38.48,43.23-89.33,64.04-148.76,76.62-40.56,8.61-78.45,12.86-115.43,16.9-23.56,2.55-46.76,5.03-70.05,8.48-69.95-21.62-186.33-51.02-302.75-51.02l-16.63.15-16.66-.15c-116.34,0-232.71,29.38-302.69,51.02h-.02s-.06-.02-.11-.02c-.06,0-.14-.02-.23-.02-3.72-.33-30.73-2.69-68.36-8.3-.05,0-.09-.02-.14-.02-37.38-4.09-75.66-8.34-116.64-17.04-62.03-13.14-114.78-35.23-153.76-82.46-.08.5-.31,2.51-.62,5.85-.02.22-.05.45-.06.68-.02.25-.05.51-.06.77-.03.28-.05.57-.08.87-.08.94-.15,1.95-.25,3.03-.09,1.3-.19,2.69-.28,4.21-.08,1.15-.15,2.37-.23,3.64-.03.45-.05.9-.08,1.36-.05.87-.09,1.76-.12,2.68-1.28,27.58-1.02,76.61,11.16,129.95.03.11.05.22.08.33,8.84,35.45,22.03,66.84,37.96,95.71l10.14,18.65s.02.05.03.06l.46.87c-32.62,40.82-57.17,88.36-71.28,140.25-10.25,47.93-13.99,96.08-11.53,142.52,11.19,109.02,67.48,204.81,149.98,268.28,12.91,9.94,26.49,19.07,40.6,27.34,52.79,30.93,113.54,49.77,178.5,52.68l15.4.39c.63,0,1.27,0,1.89.02,55.43.06,108.2-11.47,155.99-32.35,15.19-6.61,30.42-14.77,45.34-24.04.51-.33,1.01-.65,1.52-.96.06-.05.14-.08.2-.12l2.57,4.5,91.08,159.87.03.05.26.46,91.39-160.46,2.2-3.84.34-.59c.56.36,1.11.71,1.69,1.05,14.97,9.3,30.19,17.46,45.4,24.07,87.12,38.08,128.25,15.68,202.94,40,14.19,4.63,27.52,10.77,40.23,16.8,6.01,2.85,11.81,5.99,17.4,9.43,26.39,16.15,48.25,38.62,64.33,65.28,19.89,32.97,137.86-12,106.41-64.13-12.2-20.22-26.5-38.98-42.69-55.97-11.19-11.72-23.27-22.58-36.21-32.51-17.31-13.25-36.11-24.8-56.27-34.33-40.7-19.29-86.5-30.31-136-30.87-9.46.62-18.95.82-28.44.62-40.31-.88-80.49-9.09-117.41-24.64-71.92-30.31-131.42-88.54-155.31-174.97l-.23.84v.02s-.02.05-.03.08c0,.05-.02.08-.03.11,0,.03,0,.05-.02.06-24.58,87.69-83.16,145-153.74,174.35-80.8,33.59-177.37,30.59-256.71-5.4-97.13-44.06-168.5-137.51-153.68-273.68,6.21-57.15,27.71-104.46,58.99-141.62,124.61-148.11,404.5-135.35,490.81,56.79,6.8,14.21,11.69,28.06,14.71,40.8.03-.06.05-.15.08-.22v-.02s.02-.06.03-.09c.57-2.12,1.18-4.23,1.8-6.32,1.56-5.63,3.48-11.45,5.79-17.4.29-.82.62-1.66.94-2.49,78.96-208.12,366.11-213.6,494.9-70.9,49.52,54.86,75.63,131.64,57.51,227.23-17.41,91.87-74.81,154.78-146.96,188.46Z"></path>
    <circle class="cls-3" cx="1551.29" cy="505.32" r="207.44"></circle>
    <circle class="cls-8" cx="1478.97" cy="436.13" r="97.82"></circle>
    <circle class="cls-3" cx="997.58" cy="505.32" r="207.44"></circle>
    <circle class="cls-8" cx="925.27" cy="436.13" r="97.82"></circle>
    <path class="cls-6"
        d="M1929.45,46.73c-.05,24.19-1.83,55.82-8.27,90.04-8.1,43.08-23.56,90.28-52.2,132.01,0,0-.03.05-.11.14-2.46,3.27-49.88,65.56-97.03,68.57-128.79-142.71-415.94-137.23-494.9,70.9-.33.84-.65,1.67-.94,2.49-2.31,5.94-4.23,11.76-5.79,17.4-.67,2.34-1.25,4.63-1.78,6.89,0,0-.02-.2-.02-.57-.02-.15-.02-.36-.02-.57v-.15c-.05-1.93-.11-5.98,0-11.72.74-39.92,9.26-161.87,83.26-226.05,89.32-77.48,236.16-88.14,236.16-88.14,0,0,28.71-2.34,69.84-8.48,36.98-4.04,74.87-8.3,115.43-16.9,59.43-12.58,110.28-33.39,148.76-76.62,0,0,0-.02.02-.02,1.8-1.89,3.51-3.81,5.11-5.76.05-.06.11-.12.15-.19,0,0,2.35,18.2,2.31,46.73Z"></path>
    <path class="cls-2" d="M1267.99,582.6v425.07l-93.95-164.89s100.13-92.89,93.95-260.18Z"></path>
    <path class="cls-7"
        d="M1267.97,583.26v425.07s93.95-164.89,93.95-164.89c0,0-100.13-92.89-93.95-260.18Z"></path>
    <path class="cls-4"
        d="M1268.41,433.88v.15c0,.26-.02.5-.02.67v.02c-.02.31-.02.46-.02.46-.02-.08-.03-.15-.06-.23v-.02c-3.02-12.74-7.91-26.59-14.71-40.8-86.31-192.15-366.2-204.9-490.81-56.79-47.71-4.88-94.97-68.54-94.97-68.54-.2-.29-.39-.57-.59-.87-.02-.02-.03-.05-.03-.06-24.61-36.14-39.38-76.33-48.1-114.36-.03-.11-.05-.22-.08-.33-12.18-53.34-12.45-102.37-11.16-129.95.03-.91.08-1.81.12-2.68.03-.46.05-.91.08-1.36.08-1.27.15-2.49.23-3.64.09-1.52.19-2.91.28-4.21.09-1.08.17-2.09.25-3.03.03-.29.05-.59.08-.87.02-.26.05-.53.06-.77.02-.23.05-.46.06-.68.31-3.34.54-5.36.62-5.85,38.98,47.23,91.73,69.32,153.76,82.46,40.97,8.7,79.26,12.96,116.64,17.04.05,0,.09.02.14.02,37.63,5.6,64.64,7.97,68.36,8.3.09,0,.17.02.23.02.05,0,.08,0,.11.02h.09s146.84,10.67,236.16,88.14c74.01,64.18,82.52,186.13,83.26,226.05.11,5.74.05,9.78,0,11.72Z"></path>
</svg>